<?xml version="1.0" encoding="UTF-8"?>
<!-- Created with Inkscape (http://www.inkscape.org/) -->
<svg width="67.733mm" height="67.733mm" version="1.1" viewBox="0 0 67.733 67.733" xml:space="preserve" xmlns="http://www.w3.org/2000/svg"><defs><filter id="filter1294" x="0" y="0" width="1" height="1" color-interpolation-filters="sRGB"><feColorMatrix result="colormatrix" values="1 0 0 0 0 0 1 0 0 0 0 0 1 0 0 0 0 0 5 -1 "/><feComposite in2="colormatrix" k2="0.3" operator="arithmetic" result="composite"/></filter></defs><g transform="translate(0 -34.869)"><g transform="matrix(.31341 0 0 .31341 8.6622 26.427)" filter="url(#filter1294)" stroke-width=".26458"><path d="m66.942 82.021-0.47852 0.52917-0.47904 0.52917h1.0583l0.47904-0.52917 0.47852-0.52917h-0.52917zm49.049 51.858 0.47904 0.52916 0.47904 0.52917h3.175l-0.95808-1.0583h-1.5875zm-73.207 50.957-2.1167 2.0671v1.0583l1.0583-1.0335 1.0583-1.0335v-0.52917z" fill="#fd14fd"/><path d="m69.059 80.962-0.47852 0.52917-0.47904 0.52917h52.071l-26.454 26.458 25.396 25.4h3.175l-26.454-26.458 26.454-26.458h-26.615zm-1.9337 55.033v25.534l-24.342 24.338v1.0583l26.458-26.454v-24.476h-1.0583z" fill="#fdfd02"/><path d="m64.878 83.079-26.328 26.324v79.617l2.1167-2.0671v-78.604l25.266-25.27h-0.5271zm4.3636 51.858v1.0583h48.766l-0.47904-0.52916-0.47904-0.52917h-23.904z" fill="#00fdfd"/><path d="m68 82.021-0.47852 0.52917-0.47904 0.52917h51.012l-26.454 26.458 24.338 24.342h3.175l-25.396-25.4 26.454-26.458h-26.086zm-2.9921 53.975v26.593l-22.225 22.22v1.0588l24.342-24.338v-25.534h-1.0583z" fill="#fd0a00"/><path d="m65.937 83.079-25.27 25.266v78.559l2.1167-2.0671v-77.546l24.207-24.211h-0.5271zm3.3052 50.8v1.0583h47.707l-0.95808-1.0583h-23.375z" fill="#0003fd"/><path d="m67.125 134.94v1.0583h2.1167v-1.0583h-1.0583z" fill="#00fd00"/><path d="m66.995 83.079-24.211 24.207v77.522l22.225-22.22v-26.593h2.1167v-1.0583h2.1167v-1.0583h46.697l-24.338-24.342 26.454-26.458h-25.53z"/></g></g></svg>
